<svg width="26" height="26" viewBox="0 0 26 26" fill="none" xmlns="http://www.w3.org/2000/svg">
<path d="M13 0C5.83214 0 0 5.83214 0 13C0 20.1679 5.83214 26 13 26C20.1679 26 26 20.1679 26 13C26 5.83214 20.1679 0 13 0ZM13 2C19.087 2 24 6.91302 24 13C24 18.5327 19.9351 23.082 14.625 23.8672V16.1797H17.7305L18.2188 13.0273H14.625V11.3008C14.625 9.99078 15.0513 8.82812 16.2773 8.82812H18.2461V6.07422C17.9001 6.02822 17.1692 5.92578 15.7852 5.92578C12.8972 5.92578 11.2031 7.45178 11.2031 10.9258V13.0234H8.23438V16.1797H11.207V23.8398C5.97957 22.9842 2 18.4741 2 13C2 6.91302 6.91302 2 13 2Z" fill="black"/>
</svg>
