<svg width="26" height="26" viewBox="0 0 26 26" fill="none" xmlns="http://www.w3.org/2000/svg">
<path d="M7.54688 0C3.39063 0 0 3.39063 0 7.54688V18.4609C0 22.6094 3.39063 26 7.54688 26H18.4609C22.6094 26 26 22.6094 26 18.4531V7.54688C26 3.39063 22.6094 0 18.4531 0H7.54688ZM7.54688 2H18.4531C21.5312 2 24 4.46875 24 7.54688V18.4531C24 21.5312 21.5312 24 18.4609 24H7.54688C4.46875 24 2 21.5312 2 18.4609V7.54688C2 4.46875 4.46875 2 7.54688 2ZM21 4C20.4453 4 20 4.44531 20 5C20 5.55469 20.4453 6 21 6C21.5547 6 22 5.55469 22 5C22 4.44531 21.5547 4 21 4ZM13 6C9.14844 6 6 9.14844 6 13C6 16.8516 9.14844 20 13 20C16.8516 20 20 16.8516 20 13C20 9.14844 16.8516 6 13 6ZM13 8C15.7734 8 18 10.2266 18 13C18 15.7734 15.7734 18 13 18C10.2266 18 8 15.7734 8 13C8 10.2266 10.2266 8 13 8Z" fill="black"/>
</svg>
