<svg width="28" height="22" viewBox="0 0 28 22" fill="none" xmlns="http://www.w3.org/2000/svg">
<path d="M28 2.59375C26.9531 3.04688 25.8984 3.38281 24.7344 3.49219C25.8984 2.82031 26.8359 1.6875 27.2969 0.453126C26.1328 1.125 24.9688 1.57813 23.6875 1.80469C22.5156 0.679688 21 0 19.3672 0C16.2188 0 13.6484 2.48438 13.6484 5.53125C13.6484 5.97656 13.6484 6.42969 13.7656 6.77344C7.75 6.77344 3.625 3.38281 0.828126 0C0.242188 0.789062 0.00781202 1.80469 0.00781202 2.82031C0.00781202 4.73438 1.0625 6.42969 2.57813 7.44531C1.64063 7.33594 0.710938 7.10938 0.00781202 6.77344C0.00781202 6.77344 0.00781202 6.77344 0.00781202 6.88281C0.00781202 9.59375 1.99219 11.8438 4.5625 12.2969C4.09375 12.4063 3.625 12.5234 3.03906 12.5234C2.69531 12.5234 2.34375 12.5234 1.99219 12.4141C2.69531 14.6719 5.95313 17.2656 8.51563 17.2656C6.53125 18.7266 4.6875 20 1 20C0.53125 20 0.90625 20 0 20C2.5625 21.5781 5.60156 22 8.75 22C19.3672 22 25.0859 13.5391 25.0859 6.20313C25.0859 5.97656 25.0859 5.75781 25.0859 5.53125C26.25 4.73438 27.1875 3.72656 28 2.59375Z" fill="black"/>
</svg>
