<svg width="34" height="24" viewBox="0 0 34 24" fill="none" xmlns="http://www.w3.org/2000/svg">
<path d="M3.64286 0C1.64118 0 0 1.62188 0 3.6V20.4C0 22.3781 1.64118 24 3.64286 24H30.3571C32.3493 24 34 22.3781 34 20.4V3.6C34 1.62188 32.3588 0 30.3571 0H3.64286ZM3.64286 2.4H30.3571C31.0402 2.4 31.5714 2.925 31.5714 3.6V20.4C31.5714 21.075 31.0402 21.6 30.3571 21.6H3.64286C2.95982 21.6 2.42857 21.075 2.42857 20.4V3.6C2.42857 2.925 2.95982 2.4 3.64286 2.4ZM12.1713 4.75313V19.2L24.3142 11.9719L12.1713 4.75313ZM14.5999 8.99063L19.6088 11.9719L14.5999 14.9531V8.99063Z" fill="black"/>
</svg>
